# Blender v2.76 (sub 0) OBJ File: 'shield.blend'
# www.blender.org
mtllib shield.mtl
o Sphere
v -0.980785 0.195090 0.000000
v -1.000000 0.000000 0.000000
v -0.961940 0.195090 -0.191342
v -0.980785 0.000000 -0.195090
v -0.906127 0.195090 -0.375330
v -0.923879 0.000000 -0.382684
v -0.815493 0.195090 -0.544895
v -0.831469 0.000000 -0.555570
v -0.693520 0.195090 -0.693520
v -0.707107 0.000000 -0.707107
v -0.544895 0.195090 -0.815493
v -0.555570 0.000000 -0.831470
v -0.375330 0.195090 -0.906128
v -0.382683 0.000000 -0.923880
v -0.191341 0.195090 -0.961940
v -0.195090 0.000000 -0.980785
v 0.000000 0.195090 -0.980785
v 0.000000 0.000000 -1.000000
v 0.191342 0.195090 -0.961940
v 0.195091 0.000000 -0.980785
v 0.375331 0.195090 -0.906127
v 0.382684 0.000000 -0.923880
v 0.544895 0.195090 -0.815493
v 0.555571 0.000000 -0.831470
v 0.693520 0.195090 -0.693520
v 0.707107 0.000000 -0.707107
v 0.815493 0.195090 -0.544895
v 0.831470 0.000000 -0.555570
v 0.906128 0.195090 -0.375330
v 0.923880 0.000000 -0.382683
v 0.961940 0.195090 -0.191342
v 0.980786 0.000000 -0.195090
v 0.980785 0.195090 0.000000
v 1.000000 0.000000 0.000000
v 0.961940 0.195090 0.191342
v 0.980786 0.000000 0.195090
v 0.906127 0.195090 0.375330
v 0.923880 0.000000 0.382684
v 0.815493 0.195090 0.544895
v 0.831470 0.000000 0.555570
v 0.693520 0.195090 0.693520
v 0.707107 0.000000 0.707107
v 0.544895 0.195090 0.815493
v 0.555570 0.000000 0.831470
v 0.375330 0.195090 0.906127
v 0.382684 0.000000 0.923880
v 0.191342 0.195090 0.961939
v 0.195090 0.000000 0.980785
v 0.000000 0.195090 0.980785
v 0.000000 0.000000 1.000000
v -0.191342 0.195090 0.961939
v -0.195090 0.000000 0.980785
v -0.375330 0.195090 0.906127
v -0.382683 0.000000 0.923879
v -0.544895 0.195090 0.815493
v -0.555570 0.000000 0.831469
v -0.693519 0.195090 0.693519
v -0.707106 0.000000 0.707106
v -0.815492 0.195090 0.544895
v -0.831469 0.000000 0.555570
v -0.906127 0.195090 0.375330
v -0.923879 0.000000 0.382683
v -0.961939 0.195090 0.191341
v -0.980785 0.000000 0.195090
vt 0.635207 0.326389
vt 0.631556 0.392868
vt 0.505683 0.391513
vt 0.630323 0.463427
vt 0.504426 0.463454
vt 0.631556 0.535353
vt 0.505683 0.536790
vt 0.635207 0.605883
vt 0.509406 0.608702
vt 0.641136 0.672307
vt 0.649116 0.732071
vt 0.523587 0.737362
vt 0.359736 0.216362
vt 0.350884 0.267225
vt 0.225271 0.262664
vt 0.343929 0.327032
vt 0.218180 0.323644
vt 0.339139 0.393487
vt 0.213296 0.391400
vt 0.336697 0.464035
vt 0.210806 0.463330
vt 0.336697 0.535965
vt 0.210806 0.536670
vt 0.339139 0.606513
vt 0.213296 0.608600
vt 0.343929 0.672968
vt 0.218180 0.676356
vt 0.350884 0.732775
vt 0.359736 0.783638
vt 0.234296 0.789194
vt 0.504426 0.216096
vt 0.496446 0.275861
vt 0.370761 0.271741
vt 0.490517 0.342284
vt 0.364716 0.339466
vt 0.486866 0.412814
vt 0.360993 0.411378
vt 0.485633 0.484741
vt 0.359736 0.484713
vt 0.486866 0.555299
vt 0.490517 0.621779
vt 0.364716 0.624436
vt 0.496446 0.681624
vt 0.370761 0.685453
vt 0.504426 0.732535
vt 0.378897 0.737362
vt 0.789194 0.215366
vt 0.782240 0.275174
vt 0.656490 0.271785
vt 0.777449 0.341628
vt 0.651606 0.339542
vt 0.775007 0.412176
vt 0.775007 0.484106
vt 0.649116 0.484811
vt 0.777449 0.554654
vt 0.651606 0.556741
vt 0.782240 0.621109
vt 0.656490 0.624498
vt 0.789194 0.680917
vt 0.663581 0.685477
vt 0.649116 0.215633
vt 0.641136 0.266544
vt 0.515451 0.262714
vt 0.509406 0.323731
vt 0.515451 0.676427
vt 0.234296 0.210806
vt 0.225271 0.737336
vt 0.378897 0.210806
vt 0.360993 0.556654
vt 0.663581 0.210806
vt 0.649116 0.411472
vt 0.523587 0.210806
vn -0.990400 0.097600 -0.097500
vn -0.952400 0.097600 -0.288900
vn -0.877700 0.097500 -0.469100
vn -0.769300 0.097600 -0.631400
vn -0.631400 0.097600 -0.769300
vn -0.469100 0.097600 -0.877700
vn -0.288900 0.097600 -0.952400
vn -0.097500 0.097600 -0.990400
vn 0.097600 0.097600 -0.990400
vn 0.288900 0.097600 -0.952400
vn 0.469100 0.097600 -0.877700
vn 0.631400 0.097600 -0.769300
vn 0.769300 0.097600 -0.631400
vn 0.877700 0.097600 -0.469100
vn 0.952400 0.097600 -0.288900
vn 0.990400 0.097600 -0.097500
vn 0.990400 0.097600 0.097500
vn 0.952400 0.097600 0.288900
vn 0.877700 0.097600 0.469100
vn 0.769300 0.097600 0.631400
vn 0.631400 0.097600 0.769300
vn 0.469100 0.097600 0.877700
vn 0.288900 0.097600 0.952400
vn 0.097500 0.097600 0.990400
vn -0.097500 0.097600 0.990400
vn -0.288900 0.097600 0.952400
vn -0.469100 0.097600 0.877700
vn -0.631400 0.097600 0.769300
vn -0.769300 0.097600 0.631400
vn -0.877700 0.097600 0.469100
vn -0.952400 0.097600 0.288900
vn -0.990400 0.097600 0.097600
vn -0.990400 0.097500 -0.097500
vn -0.952400 0.097500 -0.288900
vn 0.097500 0.097600 -0.990400
vn -0.097600 0.097600 0.990400
vn -0.990400 0.097500 0.097600
usemtl Material.001
s off
f 1/1/1 3/2/1 4/3/1
f 3/2/2 5/4/2 6/5/2
f 5/4/3 7/6/3 8/7/3
f 7/6/4 9/8/4 10/9/4
f 10/9/5 9/8/5 11/10/5
f 11/10/6 13/11/6 14/12/6
f 13/13/7 15/14/7 16/15/7
f 15/14/8 17/16/8 18/17/8
f 17/16/9 19/18/9 20/19/9
f 19/18/10 21/20/10 22/21/10
f 21/20/11 23/22/11 24/23/11
f 24/23/12 23/22/12 25/24/12
f 26/25/13 25/24/13 27/26/13
f 28/27/14 27/26/14 29/28/14
f 29/28/15 31/29/15 32/30/15
f 31/31/16 33/32/16 34/33/16
f 33/32/17 35/34/17 36/35/17
f 35/34/18 37/36/18 38/37/18
f 37/36/19 39/38/19 40/39/19
f 40/39/20 39/38/20 41/40/20
f 41/40/21 43/41/21 44/42/21
f 43/41/22 45/43/22 46/44/22
f 45/43/23 47/45/23 48/46/23
f 47/47/24 49/48/24 50/49/24
f 49/48/25 51/50/25 52/51/25
f 52/51/26 51/50/26 53/52/26
f 53/52/27 55/53/27 56/54/27
f 55/53/28 57/55/28 58/56/28
f 57/55/29 59/57/29 60/58/29
f 59/57/30 61/59/30 62/60/30
f 61/61/31 63/62/31 64/63/31
f 64/63/32 63/62/32 1/1/32
f 2/64/33 1/1/33 4/3/33
f 4/3/34 3/2/34 6/5/34
f 6/5/3 5/4/3 8/7/3
f 8/7/4 7/6/4 10/9/4
f 12/65/5 10/9/5 11/10/5
f 12/65/6 11/10/6 14/12/6
f 14/66/7 13/13/7 16/15/7
f 16/15/8 15/14/8 18/17/8
f 18/17/35 17/16/35 20/19/35
f 20/19/10 19/18/10 22/21/10
f 22/21/11 21/20/11 24/23/11
f 26/25/12 24/23/12 25/24/12
f 28/27/13 26/25/13 27/26/13
f 30/67/14 28/27/14 29/28/14
f 30/67/15 29/28/15 32/30/15
f 32/68/16 31/31/16 34/33/16
f 34/33/17 33/32/17 36/35/17
f 36/35/18 35/34/18 38/37/18
f 38/37/19 37/36/19 40/39/19
f 42/69/20 40/39/20 41/40/20
f 42/69/21 41/40/21 44/42/21
f 44/42/22 43/41/22 46/44/22
f 46/44/23 45/43/23 48/46/23
f 48/70/24 47/47/24 50/49/24
f 50/49/36 49/48/36 52/51/36
f 54/71/26 52/51/26 53/52/26
f 54/71/27 53/52/27 56/54/27
f 56/54/28 55/53/28 58/56/28
f 58/56/29 57/55/29 60/58/29
f 60/58/30 59/57/30 62/60/30
f 62/72/31 61/61/31 64/63/31
f 2/64/37 64/63/37 1/1/37
