# Blender v2.76 (sub 0) OBJ File: 'sky_chess.blend'
# www.blender.org
o Cube_Cube.001
v -1.000000 -1.000000 1.000000
v -1.000000 -1.000000 -1.000000
v -1.000000 1.000000 -1.000000
v 1.000000 -1.000000 1.000000
v 1.000000 -1.000000 -1.000000
v 1.000000 1.000000 -1.000000
vt -0.950806 0.500000
vt 2.450876 0.500000
vt 2.450876 3.901682
vt 2.450876 -2.901682
vt -0.950805 3.901682
vt -0.950805 -2.901682
vn 0.000000 0.000000 1.000000
vn 0.000000 1.000000 0.000000
s off
f 2/1/1 5/2/1 6/3/1
f 4/4/2 5/2/2 2/1/2
f 3/5/1 2/1/1 6/3/1
f 1/6/2 4/4/2 2/1/2
